<svg width="66" height="11" viewBox="0 0 66 11" fill="none" xmlns="http://www.w3.org/2000/svg">
<path d="M2.95801 5.73438H1.78223V10H0.0595703V0.046875H1.78223V4.23047H2.73242L5.6582 0.046875H7.77734L4.35938 4.81152L8.07812 10H6L2.95801 5.73438ZM8.65207 6.2334C8.65207 5.50879 8.79562 4.8571 9.08273 4.27832C9.36984 3.69499 9.77316 3.24837 10.2927 2.93848C10.8122 2.62402 11.4092 2.4668 12.0837 2.4668C13.0818 2.4668 13.8907 2.78809 14.5105 3.43066C15.1348 4.07324 15.4721 4.92546 15.5222 5.9873L15.529 6.37695C15.529 7.10612 15.3877 7.75781 15.1052 8.33203C14.8272 8.90625 14.4262 9.35059 13.9021 9.66504C13.3825 9.97949 12.781 10.1367 12.0974 10.1367C11.0538 10.1367 10.2175 9.79036 9.58859 9.09766C8.96424 8.40039 8.65207 7.47298 8.65207 6.31543V6.2334ZM10.3132 6.37695C10.3132 7.13802 10.4704 7.73503 10.7849 8.16797C11.0993 8.59635 11.5368 8.81055 12.0974 8.81055C12.6579 8.81055 13.0932 8.5918 13.403 8.1543C13.7175 7.7168 13.8747 7.0765 13.8747 6.2334C13.8747 5.486 13.7129 4.89355 13.3894 4.45605C13.0704 4.01855 12.6351 3.7998 12.0837 3.7998C11.5414 3.7998 11.1107 4.01628 10.7917 4.44922C10.4727 4.8776 10.3132 5.52018 10.3132 6.37695ZM23.4789 10H21.8178V7.0127H18.9399V10H17.2787V2.60352H18.9399V5.68652H21.8178V2.60352H23.4789V10ZM31.3537 3.92285H28.9543V10H27.2931V3.92285H24.9211V2.60352H31.3537V3.92285ZM37.0546 10C36.9817 9.85872 36.9179 9.62858 36.8632 9.30957C36.3345 9.861 35.6874 10.1367 34.9218 10.1367C34.1789 10.1367 33.5728 9.9248 33.1034 9.50098C32.634 9.07715 32.3993 8.55306 32.3993 7.92871C32.3993 7.1403 32.691 6.53646 33.2743 6.11719C33.8622 5.69336 34.7007 5.48145 35.7899 5.48145H36.8085V4.99609C36.8085 4.61328 36.7014 4.30794 36.4872 4.08008C36.273 3.84766 35.9471 3.73145 35.5096 3.73145C35.1314 3.73145 34.8215 3.82715 34.58 4.01855C34.3384 4.2054 34.2177 4.44466 34.2177 4.73633H32.5565C32.5565 4.33073 32.691 3.95247 32.9598 3.60156C33.2287 3.24609 33.5933 2.9681 34.0536 2.76758C34.5184 2.56706 35.0357 2.4668 35.6054 2.4668C36.4712 2.4668 37.1617 2.68555 37.6766 3.12305C38.1916 3.55599 38.4559 4.16667 38.4696 4.95508V8.29102C38.4696 8.95638 38.563 9.4873 38.7499 9.88379V10H37.0546ZM35.2294 8.80371C35.5575 8.80371 35.8651 8.72396 36.1522 8.56445C36.4439 8.40495 36.6626 8.19076 36.8085 7.92188V6.52734H35.913C35.2977 6.52734 34.8352 6.63444 34.5253 6.84863C34.2154 7.06283 34.0604 7.36589 34.0604 7.75781C34.0604 8.07682 34.1652 8.33203 34.3749 8.52344C34.5891 8.71029 34.8739 8.80371 35.2294 8.80371ZM43.1178 7.07422H42.277V10H40.6158V2.60352H42.277V5.55664H43.0084L45.0523 2.60352H47.1031L44.4303 6.14453L47.3287 10H45.1686L43.1178 7.07422ZM54.3421 3.92285H51.9427V10H50.2816V3.92285H47.9095V2.60352H54.3421V3.92285ZM57.5205 4.95508H59.1475C59.7536 4.95508 60.2823 5.0599 60.7334 5.26953C61.1846 5.47917 61.5264 5.77311 61.7588 6.15137C61.9958 6.52962 62.1143 6.9694 62.1143 7.4707C62.1143 8.23177 61.8454 8.84245 61.3077 9.30273C60.7699 9.76302 60.0544 9.99544 59.1612 10H55.8594V2.60352H57.5205V4.95508ZM65.0059 10H63.3448V2.60352H65.0059V10ZM57.5205 6.28809V8.67383H59.1407C59.5463 8.67383 59.8653 8.57357 60.0977 8.37305C60.3347 8.16797 60.4532 7.87858 60.4532 7.50488C60.4532 7.13118 60.337 6.83724 60.1045 6.62305C59.8767 6.4043 59.5668 6.29264 59.1748 6.28809H57.5205Z" fill="#212121"/>
</svg>
