<svg width="75" height="14" viewBox="0 0 75 14" fill="none" xmlns="http://www.w3.org/2000/svg">
<path d="M7.88672 11H6.16406V2.44141H1.78223V11H0.0595703V1.04688H7.88672V11ZM9.78684 7.2334C9.78684 6.50879 9.93039 5.8571 10.2175 5.27832C10.5046 4.69499 10.9079 4.24837 11.4275 3.93848C11.947 3.62402 12.544 3.4668 13.2185 3.4668C14.2165 3.4668 15.0254 3.78809 15.6452 4.43066C16.2696 5.07324 16.6068 5.92546 16.657 6.9873L16.6638 7.37695C16.6638 8.10612 16.5225 8.75781 16.24 9.33203C15.962 9.90625 15.5609 10.3506 15.0368 10.665C14.5173 10.9795 13.9157 11.1367 13.2321 11.1367C12.1885 11.1367 11.3523 10.7904 10.7234 10.0977C10.099 9.40039 9.78684 8.47298 9.78684 7.31543V7.2334ZM11.448 7.37695C11.448 8.13802 11.6052 8.73503 11.9196 9.16797C12.2341 9.59635 12.6716 9.81055 13.2321 9.81055C13.7927 9.81055 14.2279 9.5918 14.5378 9.1543C14.8523 8.7168 15.0095 8.0765 15.0095 7.2334C15.0095 6.486 14.8477 5.89355 14.5241 5.45605C14.2051 5.01855 13.7699 4.7998 13.2185 4.7998C12.6762 4.7998 12.2455 5.01628 11.9265 5.44922C11.6075 5.8776 11.448 6.52018 11.448 7.37695ZM24.8256 7.37695C24.8256 8.52083 24.5659 9.43457 24.0463 10.1182C23.5268 10.7972 22.8295 11.1367 21.9545 11.1367C21.1433 11.1367 20.4939 10.8701 20.0063 10.3369V13.8438H18.3452V3.60352H19.8764L19.9448 4.35547C20.4324 3.76302 21.0955 3.4668 21.934 3.4668C22.8364 3.4668 23.5427 3.80404 24.0532 4.47852C24.5681 5.14844 24.8256 6.0804 24.8256 7.27441V7.37695ZM23.1713 7.2334C23.1713 6.49512 23.0232 5.90951 22.727 5.47656C22.4353 5.04362 22.0161 4.82715 21.4692 4.82715C20.7901 4.82715 20.3025 5.10742 20.0063 5.66797V8.94922C20.3071 9.52344 20.7993 9.81055 21.4829 9.81055C22.0115 9.81055 22.4239 9.59863 22.7202 9.1748C23.0209 8.74642 23.1713 8.09928 23.1713 7.2334ZM32.0509 4.92285H29.6515V11H27.9904V4.92285H25.6183V3.60352H32.0509V4.92285ZM32.7274 7.4043C32.7274 6.19661 32.9644 5.23958 33.4384 4.5332C33.9169 3.82227 34.5822 3.4668 35.4345 3.4668C35.7808 3.4668 36.0953 3.5306 36.3778 3.6582V0.5H38.0321V3.68555C38.3238 3.53971 38.6656 3.4668 39.0575 3.4668C39.9052 3.4668 40.5682 3.81999 41.0468 4.52637C41.5298 5.22819 41.7714 6.23535 41.7714 7.54785C41.7714 8.65527 41.5298 9.53027 41.0468 10.1729C40.5637 10.8154 39.9052 11.1367 39.0712 11.1367C38.6929 11.1367 38.3466 11.0684 38.0321 10.9316V13.8438H36.3778V10.959C36.0998 11.0775 35.7808 11.1367 35.4208 11.1367C34.6233 11.1367 33.9852 10.8428 33.5067 10.2549C33.0328 9.66243 32.7753 8.84896 32.7343 7.81445L32.7274 7.4043ZM40.1102 7.4043C40.1102 6.57487 39.9781 5.93457 39.7137 5.4834C39.4494 5.02767 39.0757 4.7998 38.5927 4.7998C38.3876 4.7998 38.2007 4.82943 38.0321 4.88867V9.74219C38.1825 9.78776 38.3739 9.81055 38.6063 9.81055C39.6089 9.81055 40.1102 9.00846 40.1102 7.4043ZM34.3817 7.54785C34.3817 8.28613 34.5048 8.84896 34.7509 9.23633C34.997 9.61914 35.3615 9.81055 35.8446 9.81055C36.0497 9.81055 36.2274 9.78776 36.3778 9.74219V4.86816C36.2229 4.82259 36.0497 4.7998 35.8583 4.7998C35.3843 4.7998 35.0197 5.02083 34.7645 5.46289C34.5093 5.90039 34.3817 6.59538 34.3817 7.54785ZM43.1725 7.2334C43.1725 6.50879 43.316 5.8571 43.6031 5.27832C43.8902 4.69499 44.2936 4.24837 44.8131 3.93848C45.3326 3.62402 45.9296 3.4668 46.6041 3.4668C47.6021 3.4668 48.4111 3.78809 49.0309 4.43066C49.6552 5.07324 49.9924 5.92546 50.0426 6.9873L50.0494 7.37695C50.0494 8.10612 49.9081 8.75781 49.6256 9.33203C49.3476 9.90625 48.9466 10.3506 48.4225 10.665C47.9029 10.9795 47.3014 11.1367 46.6178 11.1367C45.5742 11.1367 44.7379 10.7904 44.109 10.0977C43.4846 9.40039 43.1725 8.47298 43.1725 7.31543V7.2334ZM44.8336 7.37695C44.8336 8.13802 44.9908 8.73503 45.3053 9.16797C45.6197 9.59635 46.0572 9.81055 46.6178 9.81055C47.1783 9.81055 47.6135 9.5918 47.9234 9.1543C48.2379 8.7168 48.3951 8.0765 48.3951 7.2334C48.3951 6.486 48.2333 5.89355 47.9098 5.45605C47.5908 5.01855 47.1555 4.7998 46.6041 4.7998C46.0618 4.7998 45.6311 5.01628 45.3121 5.44922C44.9931 5.8776 44.8336 6.52018 44.8336 7.37695ZM57.9105 3.60352V11H56.2493V4.94336H54.1575L54.0208 7.52051C53.9342 8.76009 53.695 9.65104 53.303 10.1934C52.9157 10.7311 52.321 11 51.5189 11H51.0062L50.9993 9.61914L51.3411 9.58496C51.7057 9.53483 51.97 9.3138 52.1341 8.92188C52.3027 8.52539 52.4098 7.80534 52.4554 6.76172L52.5921 3.60352H57.9105ZM64.5752 3.60352H66.2295V11H64.5752V6.06445L61.6768 11H60.0225V3.60352H61.6768V8.53906L64.5752 3.60352ZM67.9656 7.2334C67.9656 6.50879 68.1091 5.8571 68.3962 5.27832C68.6834 4.69499 69.0867 4.24837 69.6062 3.93848C70.1257 3.62402 70.7227 3.4668 71.3972 3.4668C72.3953 3.4668 73.2042 3.78809 73.824 4.43066C74.4483 5.07324 74.7856 5.92546 74.8357 6.9873L74.8425 7.37695C74.8425 8.10612 74.7013 8.75781 74.4187 9.33203C74.1407 9.90625 73.7397 10.3506 73.2156 10.665C72.6961 10.9795 72.0945 11.1367 71.4109 11.1367C70.3673 11.1367 69.531 10.7904 68.9021 10.0977C68.2778 9.40039 67.9656 8.47298 67.9656 7.31543V7.2334ZM69.6267 7.37695C69.6267 8.13802 69.7839 8.73503 70.0984 9.16797C70.4128 9.59635 70.8503 9.81055 71.4109 9.81055C71.9714 9.81055 72.4067 9.5918 72.7166 9.1543C73.031 8.7168 73.1882 8.0765 73.1882 7.2334C73.1882 6.486 73.0265 5.89355 72.7029 5.45605C72.3839 5.01855 71.9487 4.7998 71.3972 4.7998C70.8549 4.7998 70.4242 5.01628 70.1052 5.44922C69.7862 5.8776 69.6267 6.52018 69.6267 7.37695Z" fill="#212121"/>
</svg>
