<svg width="600" height="101" viewBox="0 0 600 101" fill="none" xmlns="http://www.w3.org/2000/svg">
<path d="M8.08603 22.4297C8.20061 25.9245 10.0053 27.6719 13.5001 27.6719C15.2905 27.6719 16.6368 27.1061 17.5392 25.9746C18.4558 24.8431 19.0001 22.9382 19.172 20.2598H10.5352V14.4375H19.172C18.9714 11.8594 18.4057 9.9974 17.4747 8.85156C16.5437 7.69141 15.2546 7.11133 13.6075 7.11133C11.7599 7.11133 10.3777 7.54102 9.46103 8.40039C8.55869 9.24544 8.07887 10.6276 8.02158 12.5469H0.523529C0.838633 9.03776 2.14918 6.28776 4.45517 4.29688C6.76116 2.29167 9.81194 1.28906 13.6075 1.28906C16.2143 1.28906 18.5131 1.90495 20.504 3.13672C22.5092 4.36849 24.0489 6.14453 25.1231 8.46484C26.2117 10.7708 26.756 13.4635 26.756 16.543V18.2402C26.756 23.0241 25.5743 26.7552 23.211 29.4336C20.8477 32.112 17.6108 33.4512 13.5001 33.4512C11.0222 33.4512 8.8165 33 6.8829 32.0977C4.96363 31.181 3.45973 29.8919 2.37119 28.2305C1.28264 26.5547 0.681081 24.6211 0.566498 22.4297H8.08603ZM52.9428 4.38281C57.0105 4.38281 60.2475 5.60026 62.6538 8.03516C65.0743 10.4557 66.2846 13.6283 66.2846 17.5527C66.2846 19.472 65.9624 21.2194 65.3178 22.7949C64.6876 24.3561 63.7996 25.6882 62.6538 26.791C60.2332 29.1543 56.9962 30.3359 52.9428 30.3359V34.2891H45.6811V30.3359C41.5704 30.3359 38.3048 29.1543 35.8842 26.791C33.4637 24.4277 32.2534 21.3626 32.2534 17.5957C32.2534 15.6048 32.5756 13.8001 33.2202 12.1816C33.8647 10.5632 34.767 9.18099 35.9272 8.03516C38.3621 5.60026 41.6134 4.38281 45.6811 4.38281V0.429688H52.9428V4.38281ZM45.4018 10.4414C43.5255 10.4414 42.0431 11.0716 40.9545 12.332C39.8803 13.5924 39.3432 15.347 39.3432 17.5957C39.3432 19.6582 39.8875 21.291 40.976 22.4941C42.0646 23.6829 43.6329 24.2773 45.6811 24.2773V10.4414H45.4018ZM52.9428 10.4414V24.2773H53.2651C55.0555 24.2773 56.4877 23.6901 57.562 22.5156C58.6505 21.3268 59.1948 19.6725 59.1948 17.5527C59.1948 15.347 58.6648 13.6139 57.6049 12.3535C56.5594 11.0788 55.0053 10.4414 52.9428 10.4414ZM92.45 4.38281C96.5177 4.38281 99.7547 5.60026 102.161 8.03516C104.582 10.4557 105.792 13.6283 105.792 17.5527C105.792 19.472 105.47 21.2194 104.825 22.7949C104.195 24.3561 103.307 25.6882 102.161 26.791C99.7404 29.1543 96.5034 30.3359 92.45 30.3359V34.2891H85.1883V30.3359C81.0776 30.3359 77.812 29.1543 75.3914 26.791C72.9708 24.4277 71.7606 21.3626 71.7606 17.5957C71.7606 15.6048 72.0828 13.8001 72.7274 12.1816C73.3719 10.5632 74.2742 9.18099 75.4344 8.03516C77.8693 5.60026 81.1206 4.38281 85.1883 4.38281V0.429688H92.45V4.38281ZM84.909 10.4414C83.0327 10.4414 81.5503 11.0716 80.4617 12.332C79.3875 13.5924 78.8504 15.347 78.8504 17.5957C78.8504 19.6582 79.3947 21.291 80.4832 22.4941C81.5718 23.6829 83.1401 24.2773 85.1883 24.2773V10.4414H84.909ZM92.45 10.4414V24.2773H92.7723C94.5626 24.2773 95.9949 23.6901 97.0692 22.5156C98.1577 21.3268 98.702 19.6725 98.702 17.5527C98.702 15.347 98.172 13.6139 97.1121 12.3535C96.0665 11.0788 94.5125 10.4414 92.45 10.4414ZM131.592 19.7441H119.733V27.1992H133.74V33H112.192V1.71875H133.783V7.54102H119.733V14.1367H131.592V19.7441ZM150.517 20.625H146.951V33H139.41V1.71875H146.951V13.8145H149.851L155.867 1.71875H164.998L156.404 16.1562L166.072 33H157.156L150.517 20.625ZM195.138 7.54102H185.749V33H178.208V7.54102H168.991V1.71875H195.138V7.54102ZM219.326 1.71875H226.867V33H219.326V13.2773L208.09 33H200.549V1.71875H208.09V21.4629L219.326 1.71875ZM234.127 33V1.71875H245.363C249.388 1.71875 252.446 2.45638 254.537 3.93164C256.642 5.4069 257.695 7.54818 257.695 10.3555C257.695 11.974 257.323 13.3561 256.578 14.502C255.833 15.6478 254.737 16.4928 253.291 17.0371C254.923 17.4668 256.177 18.2689 257.05 19.4434C257.924 20.6178 258.361 22.0501 258.361 23.7402C258.361 26.8053 257.387 29.1113 255.439 30.6582C253.505 32.1908 250.634 32.9714 246.824 33H234.127ZM241.668 19.7012V27.1992H246.609C247.97 27.1992 249.015 26.8913 249.746 26.2754C250.476 25.6452 250.841 24.7643 250.841 23.6328C250.841 21.026 249.545 19.7155 246.953 19.7012H241.668ZM241.668 14.7598H245.599C247.246 14.7454 248.421 14.4447 249.123 13.8574C249.825 13.2702 250.175 12.4036 250.175 11.2578C250.175 9.9401 249.796 8.99479 249.037 8.42188C248.278 7.83464 247.053 7.54102 245.363 7.54102H241.668V14.7598ZM291.315 33H283.817V19.9375H272.71V33H265.169V1.71875H272.71V14.1367H283.817V1.71875H291.315V33ZM306.287 12.4824H310.176C312.654 12.4824 314.845 12.9049 316.75 13.75C318.655 14.5951 320.116 15.791 321.133 17.3379C322.164 18.8704 322.68 20.6322 322.68 22.623C322.68 25.7025 321.534 28.2018 319.243 30.1211C316.965 32.0404 313.9 33 310.047 33H298.725V1.71875H306.287V12.4824ZM332.477 33H324.957V1.71875H332.477V33ZM306.287 18.2832V27.1992H310.155C311.687 27.1992 312.897 26.7695 313.785 25.9102C314.688 25.0508 315.139 23.9408 315.139 22.5801C315.139 21.291 314.695 20.2526 313.807 19.4648C312.919 18.6771 311.687 18.2832 310.112 18.2832H306.287ZM359.158 19.7441H347.299V27.1992H361.306V33H339.758V1.71875H361.349V7.54102H347.299V14.1367H359.158V19.7441ZM388.157 22.3867V33H380.616V1.71875H393.098C395.49 1.71875 397.603 2.16276 399.436 3.05078C401.284 3.92448 402.709 5.17773 403.711 6.81055C404.728 8.42904 405.237 10.2695 405.237 12.332C405.237 15.3828 404.141 17.8249 401.95 19.6582C399.773 21.4772 396.779 22.3867 392.969 22.3867H388.157ZM388.157 16.5645H393.098C394.559 16.5645 395.669 16.1992 396.428 15.4688C397.202 14.7383 397.588 13.707 397.588 12.375C397.588 10.9141 397.194 9.74674 396.407 8.87305C395.619 7.99935 394.545 7.55534 393.184 7.54102H388.157V16.5645ZM431.316 19.7441H419.457V27.1992H433.465V33H411.916V1.71875H433.508V7.54102H419.457V14.1367H431.316V19.7441ZM446.568 1.71875V27.1992H454.345V1.71875H461.886V27.1992H469.577V1.71875H477.075V33H439.026V1.71875H446.568ZM503.756 19.7441H491.897V27.1992H505.905V33H484.356V1.71875H505.948V7.54102H491.897V14.1367H503.756V19.7441ZM537.764 33H530.266V19.9375H519.158V33H511.617V1.71875H519.158V14.1367H530.266V1.71875H537.764V33ZM563.542 1.71875H571.083V33H563.542V13.2773L552.306 33H544.765V1.71875H552.306V21.4629L563.542 1.71875ZM591.813 33V22.0215H587.473L582.188 33H574.003L580.426 19.4648C577.633 17.6458 576.237 14.9746 576.237 11.4512C576.237 8.35742 577.254 5.96549 579.288 4.27539C581.322 2.57096 584.251 1.71875 588.075 1.71875H599.376V33H591.813ZM583.756 12.1172C583.756 13.707 584.079 14.86 584.723 15.5762C585.368 16.2923 586.449 16.6504 587.967 16.6504H591.813V7.54102H588.01C586.506 7.54102 585.418 7.9349 584.745 8.72266C584.086 9.49609 583.756 10.6276 583.756 12.1172ZM66.0483 100.691H59.2807V93H42.2436V100.67H35.2612L34.7241 87.1992H36.937C38.0971 86.4258 39.0281 85.1009 39.7299 83.2246C40.4461 81.334 40.9545 78.627 41.2553 75.1035L42.2221 61.7188H63.5131V87.1992H66.8432L66.0483 100.691ZM45.4662 87.1992H55.9936V67.541H49.3334L48.7534 75.3613C48.3237 80.4316 47.228 84.3776 45.4662 87.1992ZM98.7449 61.7188V93H91.2039V67.541H84.1785L83.6629 78.0469C83.448 81.6706 82.9467 84.5638 82.159 86.7266C81.3712 88.8893 80.2469 90.472 78.7859 91.4746C77.3393 92.4629 75.3628 92.9714 72.8562 93H70.8367V87.1992L71.8895 87.0918C73.3934 86.877 74.4819 85.9603 75.1551 84.3418C75.8283 82.709 76.2651 79.9661 76.4656 76.1133L77.0027 61.7188H98.7449ZM119.561 93V82.0215H115.221L109.936 93H101.75L108.174 79.4648C105.381 77.6458 103.985 74.9746 103.985 71.4512C103.985 68.3574 105.001 65.9655 107.035 64.2754C109.069 62.571 111.998 61.7188 115.822 61.7188H127.123V93H119.561ZM111.504 72.1172C111.504 73.707 111.826 74.86 112.471 75.5762C113.115 76.2923 114.197 76.6504 115.715 76.6504H119.561V67.541H115.758C114.254 67.541 113.166 67.9349 112.492 68.7227C111.833 69.4961 111.504 70.6276 111.504 72.1172ZM147.507 93V61.7188H158.743C162.768 61.7188 165.826 62.4564 167.917 63.9316C170.022 65.4069 171.075 67.5482 171.075 70.3555C171.075 71.974 170.703 73.3561 169.958 74.502C169.213 75.6478 168.117 76.4928 166.671 77.0371C168.304 77.4668 169.557 78.2689 170.431 79.4434C171.304 80.6178 171.741 82.0501 171.741 83.7402C171.741 86.8053 170.767 89.1113 168.819 90.6582C166.886 92.1908 164.014 92.9714 160.204 93H147.507ZM155.048 79.7012V87.1992H159.989C161.35 87.1992 162.395 86.8913 163.126 86.2754C163.856 85.6452 164.222 84.7643 164.222 83.6328C164.222 81.026 162.925 79.7155 160.333 79.7012H155.048ZM155.048 74.7598H158.979C160.627 74.7454 161.801 74.4447 162.503 73.8574C163.205 73.2702 163.556 72.4036 163.556 71.2578C163.556 69.9401 163.176 68.9948 162.417 68.4219C161.658 67.8346 160.433 67.541 158.743 67.541H155.048V74.7598ZM196.317 87.1562H185.983L184.178 93H176.121L187.594 61.7188H194.684L206.242 93H198.143L196.317 87.1562ZM187.787 81.334H194.512L191.139 70.4844L187.787 81.334ZM218.572 61.7188V87.1992H226.349V61.7188H233.89V87.1992H241.582V61.7188H249.08V93H211.031V61.7188H218.572ZM275.761 79.7441H263.901V87.1992H277.909V93H256.36V61.7188H277.952V67.541H263.901V74.1367H275.761V79.7441ZM304.719 67.541H291.119V93H283.578V61.7188H304.719V67.541ZM335.826 78.0039C335.826 81.0547 335.26 83.7546 334.129 86.1035C332.997 88.4525 331.386 90.2643 329.295 91.5391C327.218 92.7995 324.847 93.4297 322.183 93.4297C319.519 93.4297 317.156 92.821 315.093 91.6035C313.031 90.3717 311.42 88.6172 310.259 86.3398C309.114 84.0625 308.512 81.4486 308.455 78.498V76.7363C308.455 73.6712 309.013 70.9714 310.131 68.6367C311.262 66.2878 312.873 64.4759 314.965 63.2012C317.07 61.9264 319.462 61.2891 322.14 61.2891C324.79 61.2891 327.153 61.9193 329.23 63.1797C331.307 64.4401 332.918 66.2376 334.064 68.5723C335.224 70.8926 335.812 73.5566 335.826 76.5645V78.0039ZM328.156 76.6934C328.156 73.5853 327.633 71.2292 326.588 69.625C325.556 68.0065 324.074 67.1973 322.14 67.1973C318.359 67.1973 316.361 70.0332 316.146 75.7051L316.125 78.0039C316.125 81.069 316.633 83.4251 317.65 85.0723C318.667 86.7194 320.178 87.543 322.183 87.543C324.088 87.543 325.556 86.7337 326.588 85.1152C327.619 83.4967 328.142 81.1693 328.156 78.1328V76.6934ZM377.092 67.541H363.536V72.4824H367.424C369.902 72.4824 372.093 72.9049 373.998 73.75C375.903 74.5951 377.364 75.791 378.381 77.3379C379.413 78.8704 379.928 80.6322 379.928 82.623C379.928 85.7025 378.782 88.2018 376.491 90.1211C374.213 92.0404 371.148 93 367.295 93H355.952V61.7188H377.092V67.541ZM363.536 78.2832V87.1992H367.403C368.935 87.1992 370.146 86.7695 371.034 85.9102C371.936 85.0508 372.387 83.9408 372.387 82.5801C372.387 81.291 371.943 80.2526 371.055 79.4648C370.167 78.6771 368.935 78.2832 367.36 78.2832H363.536ZM404.439 61.7188H411.98V93H404.439V73.2773L393.203 93H385.662V61.7188H393.203V81.4629L404.439 61.7188ZM434.472 70.3984C434.472 69.4102 434.085 68.6152 433.312 68.0137C432.553 67.4121 431.521 67.1113 430.218 67.1113C429 67.1113 428.019 67.4049 427.275 67.9922C426.544 68.5651 426.179 69.3242 426.179 70.2695H418.659C418.659 68.5508 419.146 67.0111 420.12 65.6504C421.109 64.2897 422.498 63.2298 424.288 62.4707C426.079 61.6973 428.055 61.3105 430.218 61.3105C433.942 61.3105 436.835 62.0911 438.898 63.6523C440.974 65.2135 442.013 67.3978 442.013 70.2051C442.013 71.6374 441.59 72.9479 440.745 74.1367C439.915 75.3112 438.762 76.2422 437.286 76.9297C438.976 77.5312 440.265 78.4479 441.153 79.6797C442.056 80.8971 442.507 82.4154 442.507 84.2344C442.507 87.0417 441.39 89.276 439.155 90.9375C436.921 92.5846 433.942 93.4082 430.218 93.4082C426.766 93.4082 423.901 92.599 421.624 90.9805C419.347 89.3477 418.208 87.1276 418.208 84.3203H425.771C425.771 85.2513 426.186 86.0391 427.017 86.6836C427.847 87.3138 428.915 87.6289 430.218 87.6289C431.622 87.6289 432.76 87.2995 433.634 86.6406C434.508 85.9818 434.944 85.1224 434.944 84.0625C434.944 82.5156 434.572 81.4271 433.827 80.7969C433.082 80.1523 431.994 79.8301 430.562 79.8301H426.544V74.2441H430.819C433.254 74.1725 434.472 72.8906 434.472 70.3984ZM475.741 93H468.243V79.9375H457.135V93H449.594V61.7188H457.135V74.1367H468.243V61.7188H475.741V93ZM502.572 79.7441H490.713V87.1992H504.721V93H483.172V61.7188H504.764V67.541H490.713V74.1367H502.572V79.7441ZM535.741 82.4082C535.641 84.5853 535.054 86.5117 533.98 88.1875C532.905 89.849 531.394 91.138 529.446 92.0547C527.513 92.9714 525.3 93.4297 522.808 93.4297C518.697 93.4297 515.46 92.0905 513.097 89.4121C510.734 86.7337 509.552 82.9525 509.552 78.0684V76.5215C509.552 73.4564 510.082 70.778 511.142 68.4863C512.216 66.1803 513.756 64.4043 515.761 63.1582C517.766 61.8978 520.086 61.2676 522.722 61.2676C526.517 61.2676 529.568 62.2702 531.874 64.2754C534.18 66.2663 535.491 69.0163 535.806 72.5254H528.286C528.229 70.6204 527.749 69.2526 526.847 68.4219C525.945 67.5911 524.57 67.1758 522.722 67.1758C520.846 67.1758 519.471 67.8776 518.597 69.2812C517.723 70.6849 517.265 72.9264 517.222 76.0059V78.2188C517.222 81.556 517.637 83.9408 518.468 85.373C519.313 86.8053 520.76 87.5215 522.808 87.5215C524.541 87.5215 525.866 87.1133 526.782 86.2969C527.699 85.4805 528.186 84.1842 528.243 82.4082H535.741ZM559.715 87.1562H549.381L547.577 93H539.52L550.993 61.7188H558.083L569.641 93H561.542L559.715 87.1562ZM551.186 81.334H557.911L554.538 70.4844L551.186 81.334Z" fill="white"/>
</svg>
