<svg width="48" height="14" viewBox="0 0 48 14" fill="none" xmlns="http://www.w3.org/2000/svg">
<path d="M8.60645 7.75977C8.50618 8.82161 8.11426 9.65104 7.43066 10.248C6.74707 10.8405 5.83789 11.1367 4.70312 11.1367C3.91016 11.1367 3.21061 10.9499 2.60449 10.5762C2.00293 10.1979 1.53809 9.66243 1.20996 8.96973C0.881836 8.27702 0.710938 7.47266 0.697266 6.55664V5.62695C0.697266 4.68815 0.863607 3.861 1.19629 3.14551C1.52897 2.43001 2.00521 1.87858 2.625 1.49121C3.24935 1.10384 3.9694 0.910156 4.78516 0.910156C5.88346 0.910156 6.76758 1.20866 7.4375 1.80566C8.10742 2.40267 8.49707 3.24577 8.60645 4.33496H6.88379C6.80176 3.61947 6.59212 3.10449 6.25488 2.79004C5.9222 2.47103 5.43229 2.31152 4.78516 2.31152C4.0332 2.31152 3.45443 2.58724 3.04883 3.13867C2.64779 3.68555 2.44271 4.48991 2.43359 5.55176V6.43359C2.43359 7.50911 2.625 8.32943 3.00781 8.89453C3.39518 9.45964 3.96029 9.74219 4.70312 9.74219C5.38216 9.74219 5.89258 9.58952 6.23438 9.28418C6.57617 8.97884 6.79264 8.4707 6.88379 7.75977H8.60645ZM16.0984 4.92285H13.6989V11H12.0378V4.92285H9.66574V3.60352H16.0984V4.92285ZM20.1586 8.62109L21.6625 3.60352H23.433L20.4936 12.1211C20.0424 13.3652 19.2768 13.9873 18.1967 13.9873C17.9552 13.9873 17.6886 13.9463 17.3969 13.8643V12.5791L17.7114 12.5996C18.1306 12.5996 18.4451 12.5221 18.6547 12.3672C18.8689 12.2168 19.0375 11.9616 19.1606 11.6016L19.3998 10.9658L16.8022 3.60352H18.5932L20.1586 8.62109ZM24.3214 9.67383C24.7817 9.15885 25.0893 8.67122 25.2443 8.21094C25.4038 7.74609 25.4995 7.15365 25.5314 6.43359L25.6271 3.60352H30.7609V9.67383H31.7863V13.2012H30.132V11H25.3879V13.2012H23.7062L23.713 9.67383H24.3214ZM26.2697 9.67383H29.1066V5.03223H27.2404L27.1925 6.44727C27.1287 7.80534 26.8211 8.88086 26.2697 9.67383ZM37.747 3.60352H39.4012V11H37.747V6.06445L34.8485 11H33.1942V3.60352H34.8485V8.53906L37.747 3.60352ZM47.3717 3.60352V11H45.7174V8.28613H44.1656L42.5865 11H40.8639L42.607 8.0127C42.1513 7.82129 41.8004 7.54785 41.5543 7.19238C41.3128 6.83691 41.192 6.42904 41.192 5.96875C41.192 5.2806 41.4563 4.71777 41.985 4.28027C42.5182 3.83822 43.2359 3.61263 44.1383 3.60352H47.3717ZM42.8531 6.00977C42.8531 6.31966 42.9671 6.57259 43.1949 6.76855C43.4273 6.95996 43.7236 7.05566 44.0836 7.05566H45.7174V4.92285H44.1861C43.7805 4.92285 43.457 5.02539 43.2154 5.23047C42.9739 5.43555 42.8531 5.69531 42.8531 6.00977Z" fill="#2196F3"/>
</svg>
